HIERARCHY
ROOT Hips
{
	OFFSET 0.000000 88.474243 0.000000
	CHANNELS 6 Xposition Yposition Zposition Zrotation Yrotation Xrotation 
	JOINT Hips_Spine
	{
		OFFSET 0.000000 0.000000 0.000000
		CHANNELS 3 Zrotation Yrotation Xrotation
		JOINT Spine
		{
			OFFSET 0.005100 8.711998 -0.691000
			CHANNELS 3 Zrotation Yrotation Xrotation
			JOINT Spine1
			{
				OFFSET -0.009200 8.660301 -1.275000
				CHANNELS 3 Zrotation Yrotation Xrotation
				JOINT Spine2
				{
					OFFSET 0.006300 9.852501 -1.857000
					CHANNELS 3 Zrotation Yrotation Xrotation
					JOINT Spine2_Neck
					{
						OFFSET 0.000000 0.000000 0.000000
						CHANNELS 3 Zrotation Yrotation Xrotation
						JOINT Neck
						{
							OFFSET 0.016300 11.420799 -0.263300
							CHANNELS 3 Zrotation Yrotation Xrotation
							End Site #name: Head
							{
								OFFSET -0.019200 9.262405 2.362500
							}
						}
					}
					JOINT Spine2_LeftShoulder
					{
						OFFSET 0.000000 0.000000 0.000000
						CHANNELS 3 Zrotation Yrotation Xrotation
						JOINT LeftShoulder
						{
							OFFSET 5.616900 6.732201 -0.345700
							CHANNELS 3 Zrotation Yrotation Xrotation
							JOINT LeftArm
							{
								OFFSET 10.664888 -0.183372 -2.440700
								CHANNELS 3 Zrotation Yrotation Xrotation
								JOINT LeftForeArm
								{
									OFFSET 27.459126 0.000000 0.000000
									CHANNELS 3 Zrotation Yrotation Xrotation
									End Site #name: LeftHand
									{
										OFFSET 21.306858 0.000000 0.000000
									}
								}
							}
						}
					}
					JOINT Spine2_RightShoulder
					{
						OFFSET 0.000000 0.000000 0.000000
						CHANNELS 3 Zrotation Yrotation Xrotation
						JOINT RightShoulder
						{
							OFFSET -5.580300 6.737503 -0.344400
							CHANNELS 3 Zrotation Yrotation Xrotation
							JOINT RightArm
							{
								OFFSET -10.679335 -0.188484 -2.383900
								CHANNELS 3 Zrotation Yrotation Xrotation
								JOINT RightForeArm
								{
									OFFSET -27.503529 0.000000 0.000000
									CHANNELS 3 Zrotation Yrotation Xrotation
									End Site #name: RightHand
									{
										OFFSET -21.306808 0.000000 0.000000
									}
								}
							}
						}
					}
				}
			}
		}
	}
	JOINT Hips_LeftUpLeg
	{
		OFFSET 0.000000 0.000000 0.000000
		CHANNELS 3 Zrotation Yrotation Xrotation
		JOINT LeftUpLeg
		{
			OFFSET 6.857700 -6.739601 0.312100
			CHANNELS 3 Zrotation Yrotation Xrotation
			JOINT LeftLeg
			{
				OFFSET -0.367590 -34.731552 -4.572400
				CHANNELS 3 Zrotation Yrotation Xrotation
				End Site #name: LeftFoot
				{
					OFFSET 0.367590 -34.656704 -6.067400
				}
			}
		}
	}
	JOINT Hips_RightUpLeg
	{
		OFFSET 0.000000 0.000000 0.000000
		CHANNELS 3 Zrotation Yrotation Xrotation
		JOINT RightUpLeg
		{
			OFFSET -6.876100 -6.733299 0.301000
			CHANNELS 3 Zrotation Yrotation Xrotation
			JOINT RightLeg
			{
				OFFSET 0.347353 -34.795158 -4.515900
				CHANNELS 3 Zrotation Yrotation Xrotation
				End Site #name: RightFoot
				{
					OFFSET -0.347353 -34.589367 -6.070300
				}
			}
		}
	}
}
MOTION
Frames: 13
Frame Time: 0.041667
-0.113614 0.028521 -0.026387 3.689528 -22.200937 -4.439578 0.000000 0.000000 -0.000000 -1.528691 -3.116735 -4.821108 -1.533224 -1.182033 7.123864 0.000000 0.000000 0.000000 -1.319750 -0.847136 8.632862 1.676350 -0.796072 5.677798 -0.888061 -1.588170 5.896988 -4.717743 -0.768839 0.559803 -72.820711 -9.343902 18.386642 -0.046108 -11.932926 -0.915655 -0.882798 -2.425065 5.713677 1.444667 -5.589631 -0.303145 45.648791 50.738090 -13.829390 179.342137 71.079433 179.430349 -0.000000 0.000000 -0.000000 -4.312828 10.681565 -25.177250 7.516852 3.783173 40.395640 -0.000000 0.000000 -0.000000 -1.610350 4.759696 -33.260885 -7.529459 4.814862 53.855189 
-0.103132 -0.744296 0.101914 6.334251 -26.237036 -6.680314 0.000000 0.000000 -0.000000 -2.661446 -0.341940 0.117880 -3.283781 -0.398169 7.606703 0.000000 0.000000 0.000000 -2.998111 -0.072352 7.851940 2.707951 0.080316 9.324934 -2.853070 -0.492626 7.504946 -3.195482 -2.827478 0.565365 -76.950133 -8.161975 22.436745 -0.008238 -8.681665 0.014530 -3.138415 -0.261553 7.002700 -0.307510 -5.092428 0.404642 28.055496 58.045008 -38.581564 179.800418 57.246766 179.656458 0.000000 0.000000 -0.000000 -6.795370 10.225652 -24.269980 8.054342 3.063398 41.231267 0.000000 -0.000000 -0.000000 -2.997960 5.363334 -33.645381 -8.548826 5.703105 56.046551 
-0.300920 -1.384554 0.199755 8.547540 -28.303942 -7.954504 -0.000000 0.000000 -0.000000 -2.055352 3.363694 2.330134 -4.427821 0.559814 7.705400 0.000000 0.000000 0.000000 -4.629541 0.436134 7.800806 4.016785 -0.210903 8.396092 -4.139994 0.256146 7.827142 -4.317957 -1.232011 0.582661 -75.885058 -8.312713 20.876681 0.096429 -6.822947 -0.071699 -4.657308 0.310337 7.104388 -1.403752 -6.235196 0.502594 15.626914 60.207927 -51.884837 179.882197 57.454834 179.848887 -0.000000 0.000000 -0.000000 -8.823857 9.170672 -24.069936 9.051503 3.212036 41.653321 -0.000000 -0.000000 -0.000000 -4.424065 7.640477 -34.171587 -8.674447 6.261064 57.703431 
-0.647621 -1.832520 0.320387 10.405836 -29.306008 -8.592037 -0.000000 0.000000 0.000000 -1.841676 4.708996 3.190740 -5.248875 1.237686 7.791588 0.000000 0.000000 0.000000 -5.443718 0.949973 7.888827 4.123732 -1.060238 7.416236 -5.097110 0.892144 7.871472 -4.120465 -1.133670 0.566708 -75.283273 -8.464096 20.157415 0.147366 -4.830485 -0.245521 -5.437532 1.074420 7.256722 -3.036207 -7.012474 0.651094 -6.770128 57.955948 -73.549191 179.935276 52.178096 179.917860 -0.000000 0.000000 -0.000000 -10.570768 8.320360 -24.149005 9.550396 2.888852 41.944929 -0.000000 -0.000000 -0.000000 -5.446297 9.809117 -34.810233 -10.068996 5.886055 59.065590 
-1.130401 -1.965546 0.476447 11.622702 -29.350137 -8.865736 -0.000000 0.000000 0.000000 -1.614735 4.806083 3.022302 -6.030967 1.601997 7.761023 0.000000 0.000000 0.000000 -6.257958 1.260813 7.892420 4.262986 -1.574196 6.906933 -6.088299 1.248679 7.829789 -3.509494 -1.278623 0.630464 -74.916683 -9.200679 18.886641 0.205393 -5.175231 -0.312311 -6.271597 1.513690 7.295853 -4.147851 -7.450393 0.685156 -20.941229 50.911519 -86.980759 179.957717 50.052024 179.941218 -0.000000 0.000000 -0.000000 -11.454079 7.502417 -23.690095 9.639229 2.685031 41.696418 -0.000000 -0.000000 -0.000000 -6.029746 10.710285 -34.654802 -10.447916 5.954449 59.408882 
-1.676908 -1.878096 0.653750 12.254918 -29.158718 -8.860913 -0.000000 0.000000 0.000000 -1.245880 4.845151 2.764004 -6.899930 1.785013 7.690425 0.000000 0.000000 0.000000 -7.200401 1.355850 7.768487 4.159038 -1.825570 6.584118 -7.218120 1.389958 7.712574 -2.867673 -1.738421 0.738787 -74.167225 -9.514432 17.810786 0.202846 -6.045949 -0.346559 -7.221407 1.672396 7.265568 -5.059329 -7.132281 0.632525 -24.105209 44.170992 -90.459481 179.943053 50.300653 179.883026 -0.000000 0.000000 -0.000000 -11.756991 6.921788 -23.007656 9.563845 2.774893 40.915009 -0.000000 -0.000000 -0.000000 -6.276803 10.659981 -34.176626 -10.594502 5.892190 59.003294 
-2.207832 -1.721356 0.828333 12.572236 -29.017817 -8.641053 -0.000000 0.000000 0.000000 -0.878183 4.891472 2.402848 -7.911789 1.892377 7.617440 0.000000 0.000000 0.000000 -8.312744 1.434072 7.764738 4.119076 -1.922805 6.582154 -8.458218 1.426978 7.619095 -2.076208 -2.173446 0.814543 -73.218966 -9.576275 16.895551 0.157749 -7.112126 -0.352893 -8.317118 1.664875 7.358486 -5.518818 -6.315571 0.589723 -22.401711 39.981258 -88.811102 179.918894 49.083613 179.822380 -0.000000 0.000000 -0.000000 -11.830573 6.504271 -22.511376 9.363701 3.040808 40.012419 -0.000000 -0.000000 -0.000000 -6.348698 10.125798 -33.748744 -10.700199 5.697673 58.170610 
-2.658776 -1.608533 0.987559 12.772265 -28.948693 -8.356531 -0.000000 0.000000 0.000000 -0.559028 4.893585 2.071344 -9.046366 1.881923 7.579221 0.000000 0.000000 0.000000 -9.683786 1.516751 7.992320 4.094500 -1.910645 6.648054 -9.814798 1.406230 7.541800 -1.464981 -2.553966 0.872840 -71.958185 -9.459990 16.250770 0.129983 -8.189686 -0.354289 -9.550342 1.588727 7.503191 -5.741924 -5.195916 0.610133 -21.613544 38.126493 -85.169225 179.857288 46.966182 179.768339 -0.000000 0.000000 -0.000000 -11.880330 6.252938 -22.292472 9.151989 3.276398 39.288499 -0.000000 -0.000000 -0.000000 -6.416113 9.491291 -33.524478 -10.739138 5.489601 57.393592 
-2.986436 -1.606724 1.123007 12.952466 -28.990292 -8.137422 -0.000000 0.000000 0.000000 -0.369596 4.765612 1.702788 -10.277270 1.775139 7.519467 0.000000 0.000000 0.000000 -11.184429 1.576613 8.164698 4.073339 -1.803394 6.616405 -11.211303 1.327909 7.447867 -1.109247 -2.801454 0.915297 -70.584676 -9.341935 15.877147 0.110357 -9.396047 -0.333488 -10.858751 1.462799 7.632320 -5.467473 -4.369712 0.616518 -22.232665 38.869657 -80.044168 179.771227 46.218978 179.713420 -0.000000 0.000000 -0.000000 -11.994620 6.023673 -22.340376 9.011761 3.480736 38.999850 -0.000000 -0.000000 -0.000000 -6.543556 8.964778 -33.513060 -10.745472 5.359191 56.908854 
-3.207825 -1.757333 1.226877 13.161158 -29.102137 -8.048102 -0.000000 0.000000 0.000000 -0.330823 4.508564 1.334016 -11.572072 1.689440 7.431727 0.000000 0.000000 0.000000 -12.720790 1.565544 8.351840 4.086016 -1.757254 6.689307 -12.625339 1.238045 7.328936 -1.160429 -2.769881 0.918934 -69.002265 -9.091299 15.622995 0.098626 -11.610047 -0.325586 -12.186164 1.343163 7.733707 -4.987885 -3.995044 0.621383 -24.029348 42.600408 -74.322406 179.664387 46.664563 179.651954 0.000000 0.000000 -0.000000 -12.158701 5.901976 -22.609870 8.967164 3.613912 39.240601 -0.000000 -0.000000 -0.000000 -6.725771 8.605421 -33.665270 -10.722560 5.352171 56.869778 
-3.346239 -2.071618 1.283621 13.349319 -29.145905 -8.074019 -0.000000 0.000000 0.000000 -0.324919 4.381355 1.238345 -12.895199 1.682835 7.351840 0.000000 0.000000 0.000000 -14.261340 1.607646 8.595988 4.198673 -1.881202 6.726128 -14.056500 1.200244 7.262180 -1.235068 -2.171638 0.848132 -66.348848 -9.385739 14.359299 0.081444 -15.113766 -0.324984 -13.473998 1.288295 7.846863 -4.363684 -4.092611 0.614845 -23.908704 46.376409 -68.474497 179.539828 47.496587 179.618488 0.000000 0.000000 -0.000000 -12.332174 5.785039 -23.071025 8.973382 3.695212 40.034067 -0.000000 -0.000000 -0.000000 -6.923068 8.397186 -33.923202 -10.655240 5.478534 57.286627 
-3.424849 -2.545800 1.285763 13.441795 -29.035907 -8.159102 -0.000000 0.000000 0.000000 -0.171179 4.572888 1.621940 -14.197767 1.794792 7.335374 0.000000 0.000000 0.000000 -15.780260 1.733448 8.892137 4.479334 -2.286187 6.587044 -15.490396 1.273859 7.281984 -1.340162 -1.110793 0.725310 -62.989489 -10.095505 12.273654 0.112752 -33.466166 -0.327549 -14.771561 1.373417 8.024271 -3.841239 -4.558712 0.588659 -23.553647 50.294329 -63.186050 179.370457 48.587865 179.576623 0.000000 0.000000 -0.000000 -12.469231 5.651047 -23.765460 9.022473 3.699141 41.397568 -0.000000 -0.000000 -0.000000 -7.051856 8.250338 -34.285021 -10.556114 5.708693 58.168617 
-3.467821 -3.179607 1.226064 13.293482 -28.765380 -8.205799 -0.000000 0.000000 0.000000 0.088661 5.121326 2.034162 -15.363298 2.010159 7.435494 0.000000 0.000000 0.000000 -17.149518 1.925179 9.186769 4.946882 -2.892696 6.247426 -16.880133 1.477167 7.501128 -1.468233 0.022566 0.608593 -59.806242 -11.820891 11.021537 0.231398 -59.269867 -0.466758 -15.941936 1.606967 8.226791 -3.677556 -5.173188 0.630700 -24.758313 55.123723 -60.383560 179.199066 48.960490 179.540012 0.000000 0.000000 -0.000000 -12.445904 5.485079 -24.607043 9.165436 3.596547 43.159119 -0.000000 -0.000000 -0.000000 -7.011713 8.017009 -34.819144 -10.362221 6.036556 59.583499 
